<svg xmlns="http://www.w3.org/2000/svg" width="1200" height="430" viewBox="0 0 1200 430" role="img" aria-label="How I usually see a system">
<defs>
  <linearGradient id="brand" x1="0" y1="0" x2="1" y2="0"><stop stop-color="#f68543"/><stop offset=".42" stop-color="#f6535f"/><stop offset=".72" stop-color="#ef1f63"/><stop offset="1" stop-color="#9d1348"/></linearGradient>
  <path id="p1" d="M215 260 C255 260 275 215 315 215"/>
  <path id="p2" d="M465 215 C505 215 520 215 560 215"/>
  <path id="p3" d="M390 250 C390 275 390 292 390 315"/>
  <path id="p4" d="M710 215 C755 215 775 260 820 260"/>
  <path id="p5" d="M465 350 C505 350 520 350 560 350"/>
  <path id="p6" d="M710 350 C755 350 775 260 820 260"/>
</defs>
<rect width="1200" height="430" rx="30" fill="#fdf9ee"/>
<rect x="1" y="1" width="1198" height="428" rx="29" fill="none" stroke="#171418" stroke-opacity=".09"/>
<text x="48" y="52" fill="#625b5b" font-family="Inter,system-ui,-apple-system,Segoe UI,sans-serif" font-size="15" font-weight="650" letter-spacing="1.5">HOW I USUALLY SEE A SYSTEM</text>
<text x="48" y="90" fill="#171418" font-family="Inter,system-ui,-apple-system,Segoe UI,sans-serif" font-size="23" font-weight="710">Not as a stack list. As boundaries, data, recovery and delivery.</text>
<line x1="48" y1="126" x2="1152" y2="126" stroke="#171418" stroke-opacity=".08"/>
<g font-family="Inter,system-ui,-apple-system,Segoe UI,sans-serif">
  <g><rect x="70" y="225" width="145" height="70" rx="20" fill="#fffdf8" stroke="#f68543" stroke-width="2"/><text x="142.5" y="267" text-anchor="middle" fill="#171418" font-size="16" font-weight="700">PRODUCT</text></g>
  <g><rect x="315" y="180" width="150" height="70" rx="20" fill="#fffdf8" stroke="#f6535f" stroke-width="2"/><text x="390" y="222" text-anchor="middle" fill="#171418" font-size="16" font-weight="700">API</text></g>
  <g><rect x="560" y="180" width="150" height="70" rx="20" fill="#fffdf8" stroke="#ef1f63" stroke-width="2"/><text x="635" y="222" text-anchor="middle" fill="#171418" font-size="16" font-weight="700">DATA</text></g>
  <g><rect x="315" y="315" width="150" height="70" rx="20" fill="#fffdf8" stroke="#9d1348" stroke-width="2"/><text x="390" y="357" text-anchor="middle" fill="#171418" font-size="16" font-weight="700">WORKERS</text></g>
  <g><rect x="560" y="315" width="150" height="70" rx="20" fill="#fffdf8" stroke="#f68543" stroke-width="2"/><text x="635" y="357" text-anchor="middle" fill="#171418" font-size="16" font-weight="700">CI / OPS</text></g>
  <g><rect x="820" y="225" width="145" height="70" rx="20" fill="#fffdf8" stroke="#ef1f63" stroke-width="2"/><text x="892.5" y="267" text-anchor="middle" fill="#171418" font-size="16" font-weight="700">SHIP</text></g>
</g>
<g fill="none" stroke="#171418" stroke-opacity=".15" stroke-width="3" stroke-linecap="round"><use href="#p1"/><use href="#p2"/><use href="#p3"/><use href="#p4"/><use href="#p5"/><use href="#p6"/></g>
<g>
  <circle r="6" fill="#f68543"><animateMotion dur="3.8s" repeatCount="indefinite"><mpath href="#p1"/></animateMotion></circle>
  <circle r="6" fill="#f6535f"><animateMotion dur="3.2s" begin=".5s" repeatCount="indefinite"><mpath href="#p2"/></animateMotion></circle>
  <circle r="6" fill="#9d1348"><animateMotion dur="3.5s" begin=".8s" repeatCount="indefinite"><mpath href="#p3"/></animateMotion></circle>
  <circle r="6" fill="#ef1f63"><animateMotion dur="4.1s" begin=".3s" repeatCount="indefinite"><mpath href="#p4"/></animateMotion></circle>
  <circle r="6" fill="#f68543"><animateMotion dur="3.6s" begin="1.1s" repeatCount="indefinite"><mpath href="#p5"/></animateMotion></circle>
  <circle r="6" fill="#ef1f63"><animateMotion dur="4s" begin=".7s" repeatCount="indefinite"><mpath href="#p6"/></animateMotion></circle>
</g>
<g font-family="ui-monospace,SFMono-Regular,Consolas,monospace" font-size="13" fill="#625b5b">
  <text x="1010" y="238">read first</text>
  <text x="1010" y="267">change in pieces</text>
  <text x="1010" y="296">keep a way back</text>
</g>
</svg>